<svg width="40" height="41" viewBox="0 0 40 41" fill="none" xmlns="http://www.w3.org/2000/svg">
<path d="M29.4211 24.87C29.4211 26.6105 29.9157 27.3047 31.2092 27.3047C34.092 27.3047 35.9276 23.6267 35.9276 17.5099C35.9276 8.16072 29.1231 3.68503 20.6279 3.68503C11.8884 3.68503 3.93949 9.55316 3.93949 20.6429C3.93949 31.2354 10.893 37.0041 21.5715 37.0041C25.1973 37.0041 27.631 36.6062 31.354 35.363L32.1528 38.6928C28.4774 39.8884 24.5495 40.2344 21.5219 40.2344C7.51557 40.2344 0.0136719 32.5263 0.0136719 20.6409C0.0136719 8.65595 8.7076 0.500244 20.6775 0.500244C33.1441 0.500244 39.7479 7.95973 39.7479 17.11C39.7479 24.8679 37.3162 30.7858 29.6674 30.7858C26.1886 30.7858 23.9059 29.3933 23.6079 26.308C22.7139 29.7394 20.3298 30.7858 17.0994 30.7858C12.7783 30.7858 9.15254 27.4518 9.15254 20.7403C9.15254 13.977 12.3333 9.79974 18.0451 9.79974C21.0749 9.79974 22.9622 10.9933 23.8025 12.883L25.2449 10.2473H29.417V24.87H29.4211ZM23.3141 18.3056C23.3141 15.5725 21.2756 14.4267 19.5869 14.4267C17.7492 14.4267 15.7149 15.9165 15.7149 20.2948C15.7149 23.7759 17.2546 25.7154 19.5869 25.7154C21.2259 25.7154 23.3141 24.671 23.3141 21.7867V18.3056Z" fill="#777777"/>
</svg>
