<svg width="512" height="512" fill="none" xmlns="http://www.w3.org/2000/svg"><path fill="url(#paint0_linear)" d="M0 0h512v512H0z"/><path fill-rule="evenodd" clip-rule="evenodd" d="M257.306 415.075c62.237 0 114.029-31.772 114.029-114.029V102.452H316.817v8.935c-17.107-9.399-37.565-14.462-60.382-14.462-67.895 0-115.77 47.875-115.77 113.159 0 79.646 57.45 109.677 103.149 109.677 26.984 0 48.745-10.011 62.237-29.161v12.622c0 41.782-17.409 55.274-49.181 55.274-21.761 0-37.429-6.529-43.957-20.021h-66.155c13.057 52.663 55.709 76.6 110.548 76.6zm-23.022-279.931c.092-1.935 2.606-2.622 3.67-1.003l29.327 44.68a2.002 2.002 0 002.199.832l51.556-14.086c1.869-.51 3.299 1.669 2.087 3.181l-33.43 41.699a1.998 1.998 0 00-.111 2.348l29.328 44.68c1.063 1.619-.568 3.653-2.38 2.968l-49.989-18.908a2 2 0 00-2.268.619l-33.43 41.699c-1.211 1.512-3.65.59-3.558-1.346l2.536-53.384a2 2 0 00-1.291-1.966l-49.988-18.908c-1.812-.686-1.689-3.289.18-3.8l51.556-14.086a2 2 0 001.471-1.834l2.535-53.385z" fill="#fff"/><defs><linearGradient id="paint0_linear" x1="432.571" y1="59.766" x2="691.137" y2="473.103" gradientUnits="userSpaceOnUse"><stop stop-color="#5A00B5"/><stop offset="1" stop-color="#CA459E"/></linearGradient></defs></svg>