<svg viewBox="0 0 480 480" fill="none" xmlns="http://www.w3.org/2000/svg">
<path d="M1 375.711V104.289H127.83C178.29 104.289 216.475 128.278 216.475 172.144C216.475 199.561 199.428 223.55 175.562 233.146C214.429 245.483 228.749 266.731 228.749 294.147C228.749 351.722 183.745 375.026 129.194 375.026H1V375.711ZM52.8231 217.381H115.556C149.651 217.381 164.652 200.932 164.652 181.055V180.369C163.288 156.38 144.877 145.413 118.966 145.413H53.505V217.381H52.8231ZM52.8231 333.901H122.375C163.97 333.901 176.926 320.193 176.926 295.518C176.926 264.675 148.969 257.821 121.693 257.821H52.8231V333.901Z" fill="#111111"/>
<path d="M318.757 375.711H266.934V104.289H380.127C435.36 104.289 479 129.649 479 188.594V189.28C478.318 257.135 427.859 277.698 373.308 277.698H318.757V375.711ZM367.853 235.202C407.402 235.202 426.495 219.438 426.495 189.965C426.495 156.38 399.902 146.099 369.899 146.099H318.076V235.202H367.853Z" fill="#111111"/>
</svg>
