<svg width="41" height="41" viewBox="0 0 41 41" fill="none" xmlns="http://www.w3.org/2000/svg">
<path d="M29.2772 24.3408C29.4361 23.0295 29.5553 21.7183 29.5553 20.3673C29.5553 19.0164 29.4361 17.7051 29.2772 16.3939H35.9923C36.3101 17.6654 36.5088 18.9965 36.5088 20.3673C36.5088 21.7382 36.3101 23.0693 35.9923 24.3408H29.2772ZM25.7607 35.3869C26.9527 33.1816 27.8666 30.7976 28.5024 28.3142H34.3632C32.4384 31.6286 29.3847 34.1392 25.7607 35.3869ZM25.264 24.3408H15.9662C15.7676 23.0295 15.6484 21.7183 15.6484 20.3673C15.6484 19.0164 15.7676 17.6853 15.9662 16.3939H25.264C25.4428 17.6853 25.5819 19.0164 25.5819 20.3673C25.5819 21.7183 25.4428 23.0295 25.264 24.3408ZM20.6151 36.1815C18.9662 33.7975 17.6351 31.1552 16.8205 28.3142H24.4098C23.5952 31.1552 22.2641 33.7975 20.6151 36.1815ZM12.6683 12.4205H6.86711C8.77208 9.09716 11.8235 6.58253 15.4497 5.34782C14.2577 7.55306 13.3637 9.93711 12.6683 12.4205ZM6.86711 28.3142H12.6683C13.3637 30.7976 14.2577 33.1816 15.4497 35.3869C11.8312 34.1385 8.78398 31.6275 6.86711 28.3142ZM5.23801 24.3408C4.92014 23.0693 4.72147 21.7382 4.72147 20.3673C4.72147 18.9965 4.92014 17.6654 5.23801 16.3939H11.9531C11.7942 17.7051 11.6749 19.0164 11.6749 20.3673C11.6749 21.7183 11.7942 23.0295 11.9531 24.3408H5.23801ZM20.6151 4.53327C22.2641 6.91732 23.5952 9.57951 24.4098 12.4205H16.8205C17.6351 9.57951 18.9662 6.91732 20.6151 4.53327ZM34.3632 12.4205H28.5024C27.8806 9.95988 26.9598 7.58464 25.7607 5.34782C29.4163 6.59944 32.4559 9.12256 34.3632 12.4205ZM20.6151 0.500244C9.62864 0.500244 0.748047 9.44044 0.748047 20.3673C0.748047 25.6364 2.84118 30.6897 6.56698 34.4155C8.41182 36.2603 10.6019 37.7237 13.0123 38.7221C15.4227 39.7206 18.0062 40.2344 20.6151 40.2344C25.8842 40.2344 30.9375 38.1413 34.6633 34.4155C38.3891 30.6897 40.4822 25.6364 40.4822 20.3673C40.4822 17.7584 39.9684 15.1749 38.9699 12.7645C37.9715 10.3541 36.5081 8.16401 34.6633 6.31918C32.8185 4.47435 30.6283 3.01095 28.218 2.01254C25.8076 1.01412 23.2241 0.500244 20.6151 0.500244Z" fill="#777777"/>
</svg>
