<svg  viewBox="0 0 189 189" fill="none" xmlns="http://www.w3.org/2000/svg">
<path d="M115.167 183.43C74.6046 183.43 41.4922 151.146 41.4922 111.135C41.4922 110.859 41.4922 110.307 41.4922 110.031V109.755C41.4922 103.961 46.1831 99.5455 51.9778 99.5455C57.7725 99.5455 62.1875 104.512 62.1875 110.031V110.583C62.1875 110.859 62.1875 110.859 62.1875 111.135C62.1875 139.556 85.9181 162.735 115.167 162.735C144.417 162.735 168.147 139.556 168.147 111.135C168.147 82.9893 144.693 59.8106 115.995 59.5346C110.201 59.5346 105.786 54.8437 105.786 49.049C105.786 43.5303 110.476 38.8394 115.995 38.8394C156.006 39.3912 188.567 71.6759 188.567 111.135C188.843 150.87 155.73 183.43 115.167 183.43Z" fill="#111111"/>
<path d="M17.2097 82.7135C11.415 82.7135 6.72405 77.7466 6.99998 72.2279C7.27592 53.1882 15.2781 35.5282 29.075 22.0073C42.8718 8.76231 61.0837 1.31201 80.6752 1.31201C80.9511 1.31201 81.2271 1.31201 81.503 1.31201C87.2977 1.31201 91.7127 6.00294 91.7127 11.7976C91.7127 17.5923 87.0218 22.0073 81.503 22.0073C81.2271 22.0073 80.9511 22.0073 80.9511 22.0073H80.6752C52.2537 22.0073 28.5231 44.6341 27.6953 72.5038C27.4193 78.0225 23.0043 82.7135 17.2097 82.7135Z" fill="#111111"/>
</svg>
