<svg  viewBox="0 0 452 459" fill="none" xmlns="http://www.w3.org/2000/svg">
<g clip-path="url(#clip0_1033_984)">
<path fill-rule="evenodd" clip-rule="evenodd" d="M448.63 144.2C450.49 156.77 451.47 169.59 451.47 182.61C451.47 266.28 411.75 341.65 348.23 394.57V204.2H303.23V425.96C285.96 435.97 267.56 444.56 248.23 451.53V244.2H203.23L203.23 451.53L203.23 451.54C183.9 444.56 165.5 435.98 148.23 425.97V284.2H103.23V394.57C39.72 341.65 0 266.27 0 182.61C0.00386455 169.755 0.953091 156.917 2.84 144.2H448.63Z" fill="#111111"/>
<path d="M306.39 17.17C277.66 17.17 250.36 11.03 225.74 0C201.11 11.03 173.82 17.17 145.09 17.17C118.61 17.17 93.36 11.95 70.29 2.5C41.52 34.84 20.34 72.79 9.12 114.2H442.35C431.12 72.78 409.95 34.84 381.19 2.5C358.11 11.95 332.86 17.17 306.39 17.17Z" fill="#111111"/>
</g>
<defs>
<clipPath id="clip0_1033_984">
<rect width="451.47" height="458.81" fill="white"/>
</clipPath>
</defs>
</svg>
