<svg width="41" height="41" viewBox="0 0 41 41" fill="none" xmlns="http://www.w3.org/2000/svg">
<path d="M20.3485 0.500244C9.37624 0.500244 0.481445 9.39504 0.481445 20.3673C0.481445 31.3396 9.37624 40.2344 20.3485 40.2344C31.3208 40.2344 40.2156 31.3396 40.2156 20.3673C40.2156 9.39504 31.3208 0.500244 20.3485 0.500244ZM13.2088 8.39179C13.6181 8.36765 13.9881 8.61231 14.2686 9.04657L16.9848 14.1976C17.2708 14.808 17.1083 15.4616 16.6817 15.8977L15.4376 17.1418C15.3608 17.247 15.3102 17.3656 15.309 17.4959C15.7861 19.3427 17.2334 21.0462 18.5103 22.2177C19.7872 23.3892 21.1596 24.9753 22.9411 25.3511C23.1613 25.4125 23.431 25.4345 23.5886 25.2881L25.034 23.816C25.5329 23.4378 26.2547 23.2545 26.7874 23.5638H26.8116L31.7129 26.457C32.4323 26.908 32.5069 27.7796 31.9918 28.3098L28.616 31.659C28.1175 32.1702 27.4552 32.3421 26.8117 32.3429C23.9658 32.2576 21.2768 30.8608 19.0681 29.4254C15.4427 26.788 12.1172 23.5167 10.0294 19.5646C9.2287 17.9074 8.28809 15.7928 8.37785 13.9431C8.38587 13.2472 8.57414 12.5655 9.0642 12.1169L12.44 8.74108C12.703 8.51731 12.9632 8.40629 13.2088 8.39179Z" fill="#777777"/>
</svg>
