<svg viewBox="0 0 128 128" fill="none" xmlns="http://www.w3.org/2000/svg">
<path d="M96.8687 23.9091V26.048C94.0473 26.5491 91.9118 27.4355 90.4621 28.7072C88.3852 30.5958 85.9365 33.4862 84.33 37.3787L51.6446 104.091H49.4699L16.6569 36.5115C15.1287 33.043 13.0512 30.9233 12.4242 30.1525C11.4446 28.9578 10.2397 28.0232 8.80949 27.3487C7.37925 26.6744 5.44943 26.2408 3.02002 26.048V23.9091H34.9479V26.048C31.2645 26.3949 29.5085 27.0116 28.4114 27.8979C27.3142 28.7844 26.7656 29.9213 26.7656 31.3087C26.7656 33.2357 27.6669 36.2418 29.4694 40.327L53.7017 86.2855L77.3944 40.9051C79.236 36.4345 80.7639 33.3321 80.764 31.5977C80.7639 30.4801 80.1958 29.4107 79.0595 28.3893C77.9231 27.3681 76.6372 26.6454 73.9336 26.2214C73.7376 26.183 73.4046 26.1252 72.9344 26.048V23.9091H96.8687Z" fill="black"/>
<path d="M124.98 23.9091V26.048C122.159 26.5491 120.023 27.4355 118.573 28.7072C116.496 30.5958 114.048 33.4862 112.441 37.3787L83.7557 104.091H81.581L51.2681 36.5115C49.7399 33.043 47.6623 30.9233 47.0354 30.1525C46.0558 28.9578 44.8509 28.0232 43.4207 27.3487C41.9904 26.6744 40.6948 26.2408 38.2654 26.048V23.9091H69.5591V26.048C65.8757 26.3949 64.1197 27.0116 63.0226 27.8979C61.9254 28.7844 61.3768 29.9213 61.3768 31.3087C61.3768 33.2357 62.278 36.2418 64.0805 40.327L85.8129 86.2855L105.506 40.9051C107.347 36.4345 108.875 33.3321 108.875 31.5977C108.875 30.4801 108.307 29.4107 107.171 28.3893C106.034 27.3681 104.114 26.6454 101.411 26.2214C101.215 26.183 100.882 26.1252 100.411 26.048V23.9091H124.98Z" fill="black"/>
</svg>
