<svg  viewBox="0 0 163 173" fill="none" xmlns="http://www.w3.org/2000/svg">
<path fill-rule="evenodd" clip-rule="evenodd" d="M99.8 97.5296C101.411 96.2985 102.718 94.7135 103.619 92.8972C104.521 91.0809 104.993 89.0817 104.999 87.054C105.005 85.0263 104.545 83.0242 103.655 81.2024C102.765 79.3806 101.468 77.7876 99.8644 76.5466C89.7058 68.5464 78.8115 61.8187 67.6381 56.7179C59.6916 53.0883 50.7787 58.1408 49.5062 66.8497C47.5679 80.1601 47.1866 93.5081 48.443 106.244C48.6162 108.254 49.2629 110.194 50.33 111.907C51.3972 113.619 52.8546 115.054 54.583 116.095C56.3113 117.135 58.2616 117.752 60.274 117.894C62.2865 118.036 64.304 117.7 66.1616 116.913C78.1772 111.958 89.4874 105.44 99.8 97.5296ZM151.565 58.8173C158.877 66.3695 162.976 76.4626 163 86.9745C163.024 97.4864 158.971 107.598 151.694 115.184C124.874 143.211 91.5045 162.326 53.823 171.239C34.032 175.915 13.7845 165.182 7.79243 145.595C-3.59575 108.386 -1.93128 66.3074 9.07568 28.8945C14.8637 9.24838 34.134 -3.09017 53.9519 1.45759C90.683 9.88195 125.18 31.4771 151.565 58.8281V58.8173Z" fill="black"/>
</svg>
