<svg xmlns="http://www.w3.org/2000/svg" version="1.0"  viewBox="0 0 225.000000 225.000000" preserveAspectRatio="xMidYMid meet">

<g transform="translate(0.000000,225.000000) scale(0.100000,-0.100000)" fill="#000000" stroke="none">
<path d="M1195 1986 c-13 -10 -18 -24 -17 -55 l2 -41 -163 0 c-194 0 -207 -5 -207 -76 l0 -45 -270 3 -270 3 0 -762 0 -763 855 0 855 0 0 763 0 762 -142 -2 -141 -2 -22 -70 -23 -71 94 0 94 0 -2 -617 -3 -618 -710 0 -710 0 -3 618 -2 617 214 0 215 0 -6 35 c-4 26 -1 41 12 55 17 18 31 20 186 20 l167 0 41 123 c23 67 41 125 41 130 0 12 -65 8 -85 -7z"/>
<path d="M1306 1763 c-43 -131 -114 -350 -159 -488 l-82 -250 -121 -5 -121 -5 75 -232 76 -233 110 0 111 0 229 708 c126 389 231 715 234 725 4 16 -7 17 -136 17 l-139 0 -77 -237z"/>
<path d="M882 1614 c-19 -13 -23 -24 -20 -58 l3 -41 -102 -3 -101 -3 22 -67 23 -67 93 -3 92 -3 -5 28 c-5 28 7 62 27 75 6 4 54 8 107 8 l95 0 22 68 c12 38 22 71 22 75 0 4 -57 7 -128 7 -101 0 -132 -3 -150 -16z"/>
<path d="M926 1341 c-13 -14 -16 -28 -11 -55 l7 -36 -87 0 c-65 0 -86 -3 -83 -12 3 -7 13 -37 22 -65 l18 -53 103 0 104 0 39 120 39 120 -67 0 c-53 0 -70 -4 -84 -19z"/>
</g>
</svg>