<svg xmlns="http://www.w3.org/2000/svg" aria-hidden="true" role="img" width="1em" height="1em" preserveAspectRatio="xMidYMid meet" viewBox="0 0 20 20"><path fill="currentColor" d="M9 0a9 9 0 1 0 0 18A9 9 0 0 0 9 0ZM1.11 9.68h2.51c.04.91.167 1.814.38 2.7H1.84a7.86 7.86 0 0 1-.73-2.7Zm8.57-5.4V1.19a4.13 4.13 0 0 1 2.22 2c.205.347.386.708.54 1.08l-2.76.01Zm3.22 1.35c.232.883.37 1.788.41 2.7H9.68v-2.7h3.22ZM8.32 1.19v3.09H5.56A8.53 8.53 0 0 1 6.1 3.2a4.13 4.13 0 0 1 2.22-2.01Zm0 4.44v2.7H4.7c.04-.912.178-1.817.41-2.7h3.21Zm-4.7 2.69H1.11a7.86 7.86 0 0 1 .73-2.7H4a14.13 14.13 0 0 0-.38 2.7ZM4.7 9.68h3.62v2.7H5.11a12.88 12.88 0 0 1-.41-2.7Zm3.63 4v3.09a4.13 4.13 0 0 1-2.22-2a8.53 8.53 0 0 1-.54-1.08l2.76-.01Zm1.35 3.09v-3.04h2.76a8.53 8.53 0 0 1-.54 1.08a4.13 4.13 0 0 1-2.22 2v-.04Zm0-4.44v-2.7h3.62a12.88 12.88 0 0 1-.41 2.7H9.68Zm4.71-2.7h2.51a7.86 7.86 0 0 1-.73 2.7H14c.21-.87.337-1.757.38-2.65l.01-.05Zm0-1.35A14.13 14.13 0 0 0 14 5.63h2.16c.403.85.65 1.764.73 2.7l-2.5-.05Zm1-4H13.6a8.92 8.92 0 0 0-1.39-2.52a8 8 0 0 1 3.14 2.52h.04Zm-9.6-2.52A8.92 8.92 0 0 0 4.4 4.28H2.65a8 8 0 0 1 3.14-2.52Zm-3.15 12H4.4a8.92 8.92 0 0 0 1.39 2.52a8 8 0 0 1-3.14-2.55l-.01.03Zm9.56 2.52a8.92 8.92 0 0 0 1.39-2.52h1.76a8 8 0 0 1-3.14 2.48l-.01.04Z"/></svg>